<svg xmlns="http://www.w3.org/2000/svg" viewBox="0 0 64 64" role="img" aria-label="Horus eye">
  <rect width="64" height="64" rx="14" fill="#071826"/>
  <path d="M8 33c8-12 20-18 36-16 5 .6 9.2 2.5 12 5.5-8.4 3-15.2 7.2-20.5 12.5-7.3 7.3-15.2 10-23.5 8 6.4-1.7 11.1-4.2 14-7.5-6.7 1.4-12.7 .6-18-2.5Z" fill="#d7ad5d"/>
  <path d="M13 32c8.3-8.4 18.1-12.2 29.5-11.5 3.9 .3 7 1.2 9.5 2.8-5.9 1.6-11.3 4.5-16.1 8.7-6.5 5.7-13.3 8-20.4 6.9-3.6-.6-6.1-1.8-7.5-3.8 2.3 .6 4.9 .6 7.7 0 4.5-.9 8.6-3 12.3-6.1-5.6 1.9-10.6 2.9-15 3Z" fill="#f4d287"/>
  <circle cx="34" cy="27" r="7.8" fill="#071826"/>
  <circle cx="34" cy="27" r="3.4" fill="#67d7ff"/>
  <path d="M35 34c-1.2 7.7-5.3 13.4-12.4 17.2 2-5.6 2.1-10.2 .3-13.7 4.4-.4 8.4-1.6 12.1-3.5Z" fill="#d7ad5d"/>
  <path d="M42 33c4.2 4.3 8.6 6.5 13.2 6.7-5.4 3-11 2.3-16.8-2.1 1.1-1.7 2.3-3.2 3.6-4.6Z" fill="#f4d287"/>
</svg>
